<svg viewBox="0 0 100 100" xmlns="http://www.w3.org/2000/svg">
  <rect width="100" height="100" fill="#90EE90"/>
  <path d="M50 20 L60 30 L55 40 L45 40 Z" fill="#228B22"/>
  <path d="M45 40 L55 40 L50 50 L40 50 Z" fill="#228B22"/>
  <path d="M40 50 L50 50 L45 60 L35 60 Z" fill="#228B22"/>
  <path d="M35 60 L45 60 L40 70 L30 70 Z" fill="#228B22"/>
  <path d="M30 70 L40 70 L35 80 L25 80 Z" fill="#228B22"/>
  <circle cx="52" cy="35" r="3" fill="#8B4513"/>
  <circle cx="48" cy="45" r="3" fill="#8B4513"/>
  <circle cx="44" cy="55" r="3" fill="#8B4513"/>
  <circle cx="40" cy="65" r="3" fill="#8B4513"/>
  <circle cx="36" cy="75" r="3" fill="#8B4513"/>
  <path d="M50 20 Q60 25 65 35 Q70 45 68 55 Q66 65 60 70 Q54 75 50 80" fill="#8B4513" opacity="0.7"/>
</svg>







