<svg viewBox="0 0 100 100" xmlns="http://www.w3.org/2000/svg">
  <rect width="100" height="100" fill="#90EE90"/>
  <path d="M30 20 L70 20 L68 30 L32 30 Z" fill="#8B4513"/>
  <path d="M32 30 L68 30 L66 40 L34 40 Z" fill="#8B4513"/>
  <path d="M34 40 L66 40 L64 50 L36 50 Z" fill="#8B4513"/>
  <path d="M36 50 L64 50 L62 60 L38 60 Z" fill="#8B4513"/>
  <path d="M38 60 L62 60 L60 70 L40 70 Z" fill="#8B4513"/>
  <ellipse cx="50" cy="25" rx="8" ry="3" fill="#4B0082"/>
  <ellipse cx="50" cy="35" rx="8" ry="3" fill="#4B0082"/>
  <ellipse cx="50" cy="45" rx="8" ry="3" fill="#4B0082"/>
  <ellipse cx="50" cy="55" rx="8" ry="3" fill="#4B0082"/>
  <ellipse cx="50" cy="65" rx="8" ry="3" fill="#4B0082"/>
</svg>



