<svg viewBox="0 0 100 100" xmlns="http://www.w3.org/2000/svg">
  <rect width="100" height="100" fill="#90EE90"/>
  <path d="M30 20 Q40 15 50 20 Q60 15 70 20 Q75 25 70 30 Q60 25 50 30 Q40 25 30 30 Q25 25 30 20" fill="#228B22"/>
  <path d="M25 35 Q35 30 45 35 Q55 30 65 35 Q70 40 65 45 Q55 40 45 45 Q35 40 25 45 Q20 40 25 35" fill="#228B22"/>
  <path d="M20 50 Q30 45 40 50 Q50 45 60 50 Q65 55 60 60 Q50 55 40 60 Q30 55 20 60 Q15 55 20 50" fill="#228B22"/>
  <path d="M15 65 Q25 60 35 65 Q45 60 55 65 Q60 70 55 75 Q45 70 35 75 Q25 70 15 75 Q10 70 15 65" fill="#228B22"/>
  <circle cx="30" cy="25" r="2" fill="#8B0000"/>
  <circle cx="50" cy="30" r="2" fill="#8B0000"/>
  <circle cx="70" cy="25" r="2" fill="#8B0000"/>
  <circle cx="25" cy="40" r="2" fill="#8B0000"/>
  <circle cx="45" cy="40" r="2" fill="#8B0000"/>
  <circle cx="65" cy="40" r="2" fill="#8B0000"/>
</svg>

