<svg viewBox="0 0 100 100" xmlns="http://www.w3.org/2000/svg">
  <rect width="100" height="100" fill="#90EE90"/>
  <path d="M20 20 L80 20 L75 30 L25 30 Z" fill="#228B22"/>
  <path d="M25 30 L75 30 L70 40 L30 40 Z" fill="#228B22"/>
  <path d="M30 40 L70 40 L65 50 L35 50 Z" fill="#228B22"/>
  <path d="M35 50 L65 50 L60 60 L40 60 Z" fill="#228B22"/>
  <path d="M40 60 L60 60 L55 70 L45 70 Z" fill="#228B22"/>
  <path d="M45 70 L55 70 L50 80 L50 80 Z" fill="#228B22"/>
  <polygon points="30,25 35,30 30,35 25,30" fill="#8B0000"/>
  <polygon points="50,35 55,40 50,45 45,40" fill="#8B0000"/>
  <polygon points="70,45 75,50 70,55 65,50" fill="#8B0000"/>
  <polygon points="40,55 45,60 40,65 35,60" fill="#8B0000"/>
  <polygon points="60,65 65,70 60,75 55,70" fill="#8B0000"/>
</svg>







