<svg viewBox="0 0 100 100" xmlns="http://www.w3.org/2000/svg">
  <rect width="100" height="100" fill="#90EE90"/>
  <path d="M50 20 L55 30 L50 40 L45 30 Z" fill="#228B22"/>
  <path d="M45 30 L50 40 L45 50 L40 40 Z" fill="#228B22"/>
  <path d="M40 40 L45 50 L40 60 L35 50 Z" fill="#228B22"/>
  <path d="M35 50 L40 60 L35 70 L30 60 Z" fill="#228B22"/>
  <path d="M30 60 L35 70 L30 80 L25 70 Z" fill="#228B22"/>
  <path d="M50 20 L45 30 L40 40 L35 50 L30 60 L25 70" stroke="#8B4513" stroke-width="2" fill="none"/>
  <circle cx="52" cy="25" r="2" fill="#8B4513"/>
  <circle cx="48" cy="35" r="2" fill="#8B4513"/>
  <circle cx="44" cy="45" r="2" fill="#8B4513"/>
  <circle cx="40" cy="55" r="2" fill="#8B4513"/>
  <circle cx="36" cy="65" r="2" fill="#8B4513"/>
  <circle cx="32" cy="75" r="2" fill="#8B4513"/>
</svg>




