<svg viewBox="0 0 100 100" xmlns="http://www.w3.org/2000/svg">
  <rect width="100" height="100" fill="#90EE90"/>
  <path d="M20 20 L80 20 L75 30 L25 30 Z" fill="#228B22"/>
  <path d="M25 30 L75 30 L70 40 L30 40 Z" fill="#228B22"/>
  <path d="M30 40 L70 40 L65 50 L35 50 Z" fill="#228B22"/>
  <path d="M35 50 L65 50 L60 60 L40 60 Z" fill="#228B22"/>
  <path d="M40 60 L60 60 L55 70 L45 70 Z" fill="#228B22"/>
  <path d="M45 70 L55 70 L50 80 L50 80 Z" fill="#228B22"/>
  <ellipse cx="30" cy="25" rx="8" ry="3" fill="#FFD700"/>
  <ellipse cx="50" cy="35" rx="8" ry="3" fill="#FFD700"/>
  <ellipse cx="70" cy="45" rx="8" ry="3" fill="#FFD700"/>
  <ellipse cx="40" cy="55" rx="8" ry="3" fill="#FFD700"/>
  <ellipse cx="60" cy="65" rx="8" ry="3" fill="#FFD700"/>
  <circle cx="30" cy="25" r="2" fill="#FF8C00"/>
  <circle cx="50" cy="35" r="2" fill="#FF8C00"/>
  <circle cx="70" cy="45" r="2" fill="#FF8C00"/>
  <circle cx="40" cy="55" r="2" fill="#FF8C00"/>
  <circle cx="60" cy="65" r="2" fill="#FF8C00"/>
</svg>

